<?xml version="1.0" encoding="UTF-8"?>
<svg viewBox="0 0 293 250" version="1.1" xmlns="http://www.w3.org/2000/svg" xmlns:xlink="http://www.w3.org/1999/xlink">
    <title>编组 9</title>
    <defs>
        <linearGradient x1="-2.73849937%" y1="38.9291238%" x2="203.920508%" y2="28.4832%" id="linearGradient-1">
            <stop stop-color="#F71313" offset="0%"></stop>
            <stop stop-color="#DD12FB" offset="46.9411463%"></stop>
            <stop stop-color="#FF7D10" offset="86.7486273%"></stop>
            <stop stop-color="#C890FF" offset="99.9813907%"></stop>
        </linearGradient>
        <filter x="-67.2%" y="-102.4%" width="234.4%" height="304.9%" filterUnits="objectBoundingBox" id="filter-2">
            <feGaussianBlur stdDeviation="28" in="SourceGraphic"></feGaussianBlur>
        </filter>
        <filter x="-79.8%" y="-139.6%" width="259.5%" height="379.2%" filterUnits="objectBoundingBox" id="filter-3">
            <feOffset dx="0" dy="13" in="SourceAlpha" result="shadowOffsetOuter1"></feOffset>
            <feGaussianBlur stdDeviation="2" in="shadowOffsetOuter1" result="shadowBlurOuter1"></feGaussianBlur>
            <feColorMatrix values="0 0 0 0 0.99031664   0 0 0 0 0.672312106   0 0 0 0 0.340329352  0 0 0 0.302754862 0"
                type="matrix" in="shadowBlurOuter1" result="shadowMatrixOuter1"></feColorMatrix>
            <feMerge>
                <feMergeNode in="shadowMatrixOuter1"></feMergeNode>
                <feMergeNode in="SourceGraphic"></feMergeNode>
            </feMerge>
        </filter>
    </defs>
    <g id="页面-1" stroke="none" stroke-width="1" fill="none" fill-rule="evenodd">
        <g id="pizzap-首页" transform="translate(-587.000000, -572.000000)">
            <g id="编组-9" transform="translate(604.000000, 585.000000)">
                <rect id="矩形" fill="#FFFFFF" opacity="0" x="0" y="0" width="258" height="210"></rect>
                <g id="编组-5" transform="translate(67.000000, 71.000000)">
                    <ellipse id="椭圆形" fill="url(#linearGradient-1)" filter="url(#filter-2)" cx="62.5" cy="41" rx="62.5"
                        ry="41"></ellipse>
                    <g id="xialajiantouxiao" filter="url(#filter-3)" transform="translate(43.000000, 35.000000)"
                        fill="#FFEAE0" fill-rule="nonzero">
                        <path
                            d="M20.8156309,23.732558 L41.0498208,3.53886905 C41.8541411,2.72812198 41.8541411,1.42188346 41.0498208,0.611136387 C40.6616954,0.22089294 40.1337252,0.0012495648 39.5828637,0.000860645085 C39.0320021,0.000471725372 38.5037212,0.219369365 38.1150434,0.609064373 L20.8197819,17.8688047 L3.53904904,0.609064373 C3.15100277,0.219219939 2.62322053,0 2.07269812,0 C1.5221757,0 0.994393464,0.219219939 0.606347196,0.609064373 C-0.200494624,1.41891751 -0.202347577,2.7267406 0.602196183,3.53886905 L19.2672971,22.1806318 L19.3503177,22.2655837 L20.8156309,23.732558 Z"
                            id="路径"></path>
                    </g>
                </g>
            </g>
        </g>
    </g>
</svg>