<?xml version="1.0" encoding="UTF-8"?>
<svg width="104px" height="108px" viewBox="0 0 104 108" version="1.1" xmlns="http://www.w3.org/2000/svg" xmlns:xlink="http://www.w3.org/1999/xlink">
    <title>xiangxiahuadong</title>
    <defs>
        <filter x="-73.0%" y="-67.8%" width="246.0%" height="235.9%" filterUnits="objectBoundingBox" id="filter-1">
            <feOffset dx="-1" dy="10" in="SourceAlpha" result="shadowOffsetOuter1"></feOffset>
            <feGaussianBlur stdDeviation="4.5" in="shadowOffsetOuter1" result="shadowBlurOuter1"></feGaussianBlur>
            <feColorMatrix values="0 0 0 0 0.989261904   0 0 0 0 0.150561263   0 0 0 0 0.311404529  0 0 0 1 0" type="matrix" in="shadowBlurOuter1" result="shadowMatrixOuter1"></feColorMatrix>
            <feMerge>
                <feMergeNode in="shadowMatrixOuter1"></feMergeNode>
                <feMergeNode in="SourceGraphic"></feMergeNode>
            </feMerge>
        </filter>
    </defs>
    <g id="页面-1" stroke="none" stroke-width="1" fill="none" fill-rule="evenodd">
        <g id="pizzap-首页" transform="translate(-770.000000, -1160.000000)" fill="#FFFFFF" fill-rule="nonzero">
            <g id="xiangxiahuadong" filter="url(#filter-1)" transform="translate(797.000000, 1187.000000)">
                <path d="M21.216743,51.7278611 L21.159697,51.6891845 C21.0846364,51.6386075 20.967542,51.5791051 20.8594548,51.5255529 L20.8174209,51.4987768 C20.7663797,51.4660505 20.7033289,51.4362993 20.6552901,51.403573 L20.3850721,51.2429165 L20.3550479,51.2429165 L6.7480706,42.8203497 C5.15040951,41.8372103 4.00394822,40.2740926 3.55349342,38.4647729 C3.07659895,36.6782234 3.33354426,34.7772151 4.26806992,33.1779833 C5.50062944,31.0923525 7.77738294,29.8327907 10.2158682,29.8874998 L0.719206924,9.68643002 C-0.944134953,6.18173778 0.376930784,2.08499651 3.65857823,0.567684931 C6.94022567,-0.949626645 10.9574665,0.680739506 12.6118011,4.19435711 L15.6652645,10.6830955 C16.0728322,10.3020125 16.5390411,9.98767228 17.0463786,9.75188265 C18.6490125,9.04255819 20.4906219,9.09623065 22.048414,9.89766359 C22.6036992,8.99664737 23.4095538,8.27353121 24.3692863,7.81507904 C25.4845679,7.3069758 26.7401892,7.18643374 27.9331614,7.47294015 C28.8855059,7.69419547 29.7785048,8.11633945 30.5512735,8.71059042 C30.9604094,8.33521834 31.4251726,8.02418026 31.9293853,7.78830298 C34.985851,6.37512061 38.8139393,8.08581508 40.4682739,11.608358 L48.4517145,28.5665462 C50.2201411,32.3211486 50.496364,37.2449734 49.1632885,41.1156055 C48.4186878,43.2695928 47.2507456,44.8136805 45.8606241,45.4563066 L28.9389728,53.277899 C25.7714175,54.7416584 23.2343708,53.0696405 21.216743,51.7278611 Z M44.7317134,42.1658231 C45.2421252,41.9248383 46.1188325,40.487855 46.4881304,38.0274301 C46.881528,35.4389419 46.5265363,32.7929769 45.4643044,30.3962454 L37.2496774,12.9412121 C36.5801372,11.5131542 35.105948,10.6860706 34.0941317,11.1561397 C33.8729016,11.2584234 33.6801827,11.4126262 33.5326787,11.6053829 L36.4029943,17.7103306 C36.8300047,18.740035 36.3642625,19.9204315 35.3456628,20.390076 C34.327063,20.8597204 33.1158348,20.4525224 32.595923,19.4656519 L30.1039126,14.169937 L29.2902562,12.7359288 C28.5696749,11.4566269 27.2035728,10.7693739 26.2488025,11.212667 C25.7894438,11.4621054 25.4611138,11.895898 25.3480759,12.4027152 L28.4525805,19.0074833 C28.9442344,20.057433 28.4838355,21.3035255 27.4242509,21.7907087 C26.3646662,22.277892 25.1071388,21.8216796 24.6154849,20.7717299 L21.8832808,14.9613191 L21.4209077,14.3484442 C20.6522876,13.3309529 19.4633285,12.8608839 18.6586793,13.2178983 C18.1092361,13.4707836 17.7399381,14.1104345 17.6618752,14.910742 L20.6853143,21.4857589 L21.8442493,23.9491588 C22.3040593,24.8891895 21.9109041,26.0207005 20.9645395,26.4809866 L20.5502053,26.6713943 C19.5892144,27.0935563 18.4646106,26.6666885 18.0341755,25.7163805 L8.78371284,6.05380757 L8.44744157,5.35762934 C7.75388207,3.87006897 6.15359104,3.17686584 4.86555194,3.77188997 C3.57751283,4.36691411 3.0971253,6.04488221 3.78467994,7.51161673 L12.8579997,26.5732153 C12.8910264,26.6297426 12.9210506,26.689245 12.9480724,26.7457723 L16.5089451,34.3353053 C16.9527117,35.2936474 16.6266675,36.4294737 15.740325,37.012914 C14.8350233,37.5687149 13.6540964,37.3726223 12.981099,36.5547454 L11.2577087,34.7428968 C10.6082183,34.332377 9.81888134,34.1993348 9.06894294,34.3739819 C8.32394411,34.5493959 7.68448719,35.0205934 7.30051631,35.6770848 C6.50294912,37.0766384 6.9580403,38.8502993 8.33334954,39.7024231 L22.3486562,48.3629996 L22.3936925,48.3868006 L22.567833,48.4939049 L22.7810049,48.6277853 C22.9161139,48.7140639 23.0542254,48.7943921 23.1713199,48.8538945 L23.2583901,48.8955462 L23.3364531,48.963974 C25.5882697,50.4515343 26.2908365,50.6806186 27.254614,50.2343505 L44.7317134,42.1747484 L44.7317134,42.1598728 L44.7317134,42.1658231 Z" id="形状"></path>
            </g>
        </g>
    </g>
</svg>