<?xml version="1.0" encoding="UTF-8"?>
<svg width="60px" height="60px" viewBox="0 0 60 60" version="1.1" xmlns="http://www.w3.org/2000/svg" xmlns:xlink="http://www.w3.org/1999/xlink">
    <title>icon-2</title>
    <defs>
        <filter id="filter-1">
            <feColorMatrix in="SourceGraphic" type="matrix" values="0 0 0 0 1.000000 0 0 0 0 1.000000 0 0 0 0 1.000000 0 0 0 1.000000 0"></feColorMatrix>
        </filter>
        <polygon id="path-2" points="0 0 50.6153846 0 50.6153846 44.6101695 0 44.6101695"></polygon>
    </defs>
    <g id="页面-1" stroke="none" stroke-width="1" fill="none" fill-rule="evenodd">
        <g id="pizzap-首页" transform="translate(-704.000000, -3125.000000)">
            <g id="05备份" transform="translate(585.000000, 3073.000000)">
                <g id="icon-2" transform="translate(119.000000, 52.000000)">
                    <rect id="矩形" fill="#D8D8D8" opacity="0" x="0" y="0" width="60" height="60"></rect>
                    <g id="icon" transform="translate(1.000000, 3.000000)">
                        <path d="M39.7692308,37.9615385 C50.2520202,37.9615385 58.75,29.4635586 58.75,18.9807692 C58.75,8.49797985 50.2520202,0 39.7692308,0 C29.2864414,0 20.7884615,8.49797985 20.7884615,18.9807692 C20.7884615,29.4635586 29.2864414,37.9615385 39.7692308,37.9615385 Z" id="Ellipse-56" fill="#FC814C"></path>
                        <g filter="url(#filter-1)" id="编组">
                            <g transform="translate(0.000000, 9.038462)">
                                <mask id="mask-3" fill="white">
                                    <use xlink:href="#path-2"></use>
                                </mask>
                                <g id="Clip-2"></g>
                                <path d="M25.372416,14.0233582 C20.9161726,14.0233582 17.4735115,15.7307349 17.4735115,17.2867504 C17.4735115,18.8427659 20.9161726,20.550411 25.372416,20.550411 C29.8286593,20.550411 33.2713205,18.8427659 33.2713205,17.2867504 C33.2713205,15.7307349 29.8286593,14.0233582 25.372416,14.0233582 L25.372416,14.0233582 Z M25.3063775,-1.48052225e-13 C35.7179916,-1.48052225e-13 44.5005666,7.05322469 47.0514377,16.5887172 L47.2105796,16.3002183 C47.6428068,15.5085237 48.6000939,15.1569576 49.4483093,15.4784661 L49.6683474,15.5791053 C50.5468755,16.0519751 50.8727375,17.1412933 50.3958531,18.0124258 C50.3958531,18.0126941 50.3955825,18.0126941 50.3955825,18.0129625 L47.5810987,23.1638085 C47.0977188,24.0346726 45.9937396,24.3521556 45.1154821,23.8728448 C44.5398107,23.5585823 44.1801176,22.9601148 44.1757872,22.3085099 C44.1757872,11.9928626 35.7128493,3.5947267 25.309896,3.5947267 C17.0131368,3.56091195 9.67772446,8.93021197 7.26596713,16.8018039 C6.93306829,17.7384189 5.89756346,18.2300747 4.95299684,17.8999783 C4.06066557,17.5883995 3.55996407,16.648564 3.80327794,15.7417381 C6.6775752,6.36163244 15.4179289,-0.037407377 25.3047536,-1.48052225e-13 L25.3063775,-1.48052225e-13 Z M32.9224533,21.4575052 L32.7841515,21.5331858 C30.867412,22.5645359 28.2342634,23.1611248 25.372416,23.1611248 C22.4418236,23.1611248 19.7510267,22.5358202 17.8237319,21.4575052 C17.586643,21.7551287 17.4735115,22.0476532 17.4735115,22.316561 C17.4735115,23.8739183 20.9161726,25.5799532 25.372416,25.5799532 C29.8286593,25.5799532 33.2713205,23.8739183 33.2713205,22.316561 C33.2713205,22.0476532 33.158189,21.7551287 32.9224533,21.4575052 L32.9224533,21.4575052 Z M17.7303578,26.4352518 C17.5728399,26.6480701 17.4835255,26.903291 17.4735115,27.1673681 C17.4735115,28.7233836 20.9161726,30.4307603 25.372416,30.4307603 C29.8286593,30.4307603 33.2713205,28.7233836 33.2713205,27.1673681 C33.2713205,26.9363006 33.1882311,26.6896676 33.0158274,26.4363253 L32.7841515,26.5629965 C30.867412,27.5943465 28.2342634,28.1909354 25.372416,28.1909354 C22.39446,28.1909354 19.6641482,27.5457713 17.7303578,26.4352518 L17.7303578,26.4352518 Z M25.372416,11.412376 C31.0952988,11.412376 35.9041984,13.7963162 35.9041984,17.2867504 C35.9041984,18.2137041 35.5658866,19.0609515 34.961797,19.806218 C35.5672398,20.5568519 35.9041984,21.4040994 35.9041984,22.316561 C35.9041984,23.205406 35.5924102,24.0225959 35.0327072,24.7469294 C35.5951167,25.474215 35.9041984,26.2914049 35.9041984,27.1673681 C35.9041984,30.6580706 31.0952988,33.0417425 25.372416,33.0417425 C19.6495332,33.0417425 14.8406336,30.6580706 14.8406336,27.1673681 C14.8406336,26.2889896 15.1499859,25.4717997 15.7121248,24.7445141 C15.1526924,24.021254 14.8406336,23.2040641 14.8406336,22.316561 C14.8406336,21.4027575 15.1762389,20.55551 15.7819524,19.806218 C15.1789454,19.062025 14.8406336,18.2137041 14.8406336,17.2867504 C14.8406336,13.7963162 19.6495332,11.412376 25.372416,11.412376 L25.372416,11.412376 Z M5.07722494,20.5673184 C5.87888864,20.7704753 6.43886238,21.4864893 6.43886238,22.3068996 C6.43886238,32.6222785 14.9034242,41.0155838 25.3063775,41.0155838 C33.4680826,41.0155838 40.6708767,35.8561499 43.2268902,28.179127 C43.5384077,27.2371446 44.5606508,26.7242875 45.5106304,27.0329142 C45.5127955,27.0337193 45.5149607,27.0345244 45.5173966,27.0350612 C46.4662936,27.3471767 46.9853993,28.3600092 46.6706339,29.3062855 C43.633947,38.4502247 35.0153856,44.6241012 25.3063775,44.6101695 C14.8796071,44.6101695 6.08701808,37.5417886 3.55130329,27.9778487 L3.40082219,28.2529291 C2.91257056,29.122183 1.80642622,29.4342985 0.929521971,28.9506939 C0.514886999,28.7212366 0.206887914,28.3404181 0.071833833,27.8890179 C-0.0621376496,27.4317136 -0.00719580926,26.9405946 0.223938829,26.5235459 L3.03869321,21.4414029 C3.43735987,20.7227052 4.27610254,20.3633563 5.07722494,20.5673184 L5.07722494,20.5673184 Z" id="Fill-1" fill="#000000" mask="url(#mask-3)"></path>
                            </g>
                        </g>
                    </g>
                </g>
            </g>
        </g>
    </g>
</svg>