<?xml version="1.0" encoding="UTF-8"?>
<svg width="60px" height="60px" viewBox="0 0 60 60" version="1.1" xmlns="http://www.w3.org/2000/svg" xmlns:xlink="http://www.w3.org/1999/xlink">
    <title>icon-3</title>
    <defs>
        <filter id="filter-1">
            <feColorMatrix in="SourceGraphic" type="matrix" values="0 0 0 0 1.000000 0 0 0 0 1.000000 0 0 0 0 1.000000 0 0 0 1.000000 0"></feColorMatrix>
        </filter>
    </defs>
    <g id="页面-1" stroke="none" stroke-width="1" fill="none" fill-rule="evenodd">
        <g id="pizzap-首页" transform="translate(-1011.000000, -3125.000000)">
            <g id="05备份-2" transform="translate(891.000000, 3073.000000)">
                <g id="icon-3" transform="translate(120.000000, 52.000000)">
                    <rect id="矩形" fill="#D8D8D8" opacity="0" x="0" y="0" width="60" height="60"></rect>
                    <g id="icon" transform="translate(2.000000, 2.000000)">
                        <g id="编组-4" transform="translate(16.150000, 0.000000)" fill="#FC814C">
                            <path d="M19.95,39.9 C30.9680808,39.9 39.9,30.9680808 39.9,19.95 C39.9,8.93191924 30.9680808,0 19.95,0 C8.93191924,0 0,8.93191924 0,19.95 C0,30.9680808 8.93191924,39.9 19.95,39.9 Z" id="Ellipse-56"></path>
                        </g>
                        <g filter="url(#filter-1)" id="编组">
                            <g transform="translate(0.000000, 9.500000)">
                                <path d="M30.3566834,10.6368385 C30.0673369,10.27091 29.6279077,10.0289205 29.1368788,10.0289205 L23.9205982,10.0289205 C21.8968378,10.0289205 21.8968378,13.2000205 23.9205982,13.2000205 L25.77985,13.2000205 C21.7930837,17.3547813 16.1526318,20.0772333 10.3623745,19.800754 C8.3383367,19.7042947 8.34776889,22.8756751 10.3623745,22.971854 C16.8350788,23.2805799 23.0184366,20.330439 27.568083,15.8271349 L27.568083,17.4689061 C27.568083,19.5138997 30.7056745,19.5138997 30.7056745,17.4689061 L30.7056745,11.9965223 C30.8901571,11.4696414 30.7139971,10.9817367 30.3566834,10.6368385 L30.3566834,10.6368385 Z M9.16226657,26.2736227 L9.16226657,33.0675552 C9.16226657,35.1125488 12.2998581,35.1125488 12.2998581,33.0675552 L12.2998581,26.2736227 C12.2995807,24.2289096 9.16226657,24.2289096 9.16226657,26.2736227 L9.16226657,26.2736227 Z M17.8826071,25.2748202 L17.8826071,33.0655924 C17.8826071,35.110586 21.0199212,35.110586 21.0199212,33.0655924 L21.0199212,25.2748202 C21.0199212,23.230107 17.8826071,23.230107 17.8826071,25.2748202 L17.8826071,25.2748202 Z M26.6029477,21.3948563 L26.6029477,33.0619471 C26.6029477,35.1069407 29.7402618,35.1069407 29.7402618,33.0619471 L29.7402618,21.3948563 C29.7399843,19.3498628 26.6029477,19.3498628 26.6029477,21.3948563 L26.6029477,21.3948563 Z M39.4407182,32.57236 C39.4254602,33.6679023 38.8711802,34.6807251 38.0106312,35.2449 L22.8819472,44.0723294 L22.7826318,44.1342989 C22.7468449,44.1553293 22.7110581,44.1772009 22.6755486,44.1990725 C21.738155,44.7012778 20.5097505,44.6687508 19.6586337,44.2001941 L19.5501635,44.1373834 L18.8458005,45.4160301 L19.4436352,44.0723294 L10.2877492,38.7353813 L4.38541526,35.2858391 C3.45301517,34.682688 2.89568348,33.6516388 2.89568348,32.5263736 L2.89568348,14.9800314 C2.89568348,13.831773 3.46910538,12.788386 4.40705383,12.2023396 L19.6528079,3.30256565 C20.1083274,3.05468764 20.632369,2.92429932 21.1677847,2.92429932 C21.6740716,2.92429932 22.1689843,3.04319103 22.6430908,3.27873122 L37.6854979,12.0604547 L37.8794127,12.1785052 C38.843161,12.7597847 39.4407182,13.8289689 39.4407182,14.9685348 L39.4407182,32.57236 Z M39.444602,9.71430612 C39.3297512,9.62962382 39.2051908,9.55447528 39.0731401,9.49054294 L24.4185626,0.939312399 L23.9893977,0.685826289 C22.1670424,-0.245118275 20.037586,-0.231658835 18.2407531,0.746674171 L3.22026192,9.51157332 L2.90816727,9.69832304 C1.08692162,10.8350849 0,12.8094164 0,14.9800314 L0,32.5263736 C0,34.6549279 1.05557345,36.6085094 2.87043849,37.7794807 L17.916452,46.5584 C17.9899677,46.6080317 18.0634833,46.6509337 18.141715,46.6946769 L18.2285467,46.7451498 C19.123218,47.2386626 20.1393982,47.5 21.1680621,47.5 C22.1975583,47.5 23.2126288,47.2386626 24.1064679,46.7451498 L24.2349122,46.6669168 C24.2781893,46.6411195 24.321189,46.6156027 24.3647436,46.588123 L39.0318049,38.0329668 L39.5275499,37.7374199 C41.2583574,36.6045838 42.3094922,34.6882961 42.3369565,32.5911471 L42.3369565,14.9685348 C42.3369565,12.8360549 41.2308931,10.8311592 39.444602,9.71430612 L39.444602,9.71430612 Z" id="Fill-1" fill="#000000"></path>
                                <path d="M30.3566834,10.6368385 C30.0673369,10.27091 29.6279077,10.0289205 29.1368788,10.0289205 L23.9205982,10.0289205 C21.8968378,10.0289205 21.8968378,13.2000205 23.9205982,13.2000205 L25.77985,13.2000205 C21.7930837,17.3547813 16.1526318,20.0772333 10.3623745,19.800754 C8.3383367,19.7042947 8.34776889,22.8756751 10.3623745,22.971854 C16.8350788,23.2805799 23.0184366,20.330439 27.568083,15.8271349 L27.568083,17.4689061 C27.568083,19.5138997 30.7056745,19.5138997 30.7056745,17.4689061 L30.7056745,11.9965223 C30.8901571,11.4696414 30.7139971,10.9817367 30.3566834,10.6368385 L30.3566834,10.6368385 Z M9.16226657,26.2736227 L9.16226657,33.0675552 C9.16226657,35.1125488 12.2998581,35.1125488 12.2998581,33.0675552 L12.2998581,26.2736227 C12.2995807,24.2289096 9.16226657,24.2289096 9.16226657,26.2736227 L9.16226657,26.2736227 Z M17.8826071,25.2748202 L17.8826071,33.0655924 C17.8826071,35.110586 21.0199212,35.110586 21.0199212,33.0655924 L21.0199212,25.2748202 C21.0199212,23.230107 17.8826071,23.230107 17.8826071,25.2748202 L17.8826071,25.2748202 Z M26.6029477,21.3948563 L26.6029477,33.0619471 C26.6029477,35.1069407 29.7402618,35.1069407 29.7402618,33.0619471 L29.7402618,21.3948563 C29.7399843,19.3498628 26.6029477,19.3498628 26.6029477,21.3948563 L26.6029477,21.3948563 Z M39.4407182,32.57236 C39.4254602,33.6679023 38.8711802,34.6807251 38.0106312,35.2449 L22.8819472,44.0723294 L22.7826318,44.1342989 C22.7468449,44.1553293 22.7110581,44.1772009 22.6755486,44.1990725 C21.738155,44.7012778 20.5097505,44.6687508 19.6586337,44.2001941 L19.5501635,44.1373834 L18.8458005,45.4160301 L19.4436352,44.0723294 L10.2877492,38.7353813 L4.38541526,35.2858391 C3.45301517,34.682688 2.89568348,33.6516388 2.89568348,32.5263736 L2.89568348,14.9800314 C2.89568348,13.831773 3.46910538,12.788386 4.40705383,12.2023396 L19.6528079,3.30256565 C20.1083274,3.05468764 20.632369,2.92429932 21.1677847,2.92429932 C21.6740716,2.92429932 22.1689843,3.04319103 22.6430908,3.27873122 L37.6854979,12.0604547 L37.8794127,12.1785052 C38.843161,12.7597847 39.4407182,13.8289689 39.4407182,14.9685348 L39.4407182,32.57236 Z M39.444602,9.71430612 C39.3297512,9.62962382 39.2051908,9.55447528 39.0731401,9.49054294 L24.4185626,0.939312399 L23.9893977,0.685826289 C22.1670424,-0.245118275 20.037586,-0.231658835 18.2407531,0.746674171 L3.22026192,9.51157332 L2.90816727,9.69832304 C1.08692162,10.8350849 0,12.8094164 0,14.9800314 L0,32.5263736 C0,34.6549279 1.05557345,36.6085094 2.87043849,37.7794807 L17.916452,46.5584 C17.9899677,46.6080317 18.0634833,46.6509337 18.141715,46.6946769 L18.2285467,46.7451498 C19.123218,47.2386626 20.1393982,47.5 21.1680621,47.5 C22.1975583,47.5 23.2126288,47.2386626 24.1064679,46.7451498 L24.2349122,46.6669168 C24.2781893,46.6411195 24.321189,46.6156027 24.3647436,46.588123 L39.0318049,38.0329668 L39.5275499,37.7374199 C41.2583574,36.6045838 42.3094922,34.6882961 42.3369565,32.5911471 L42.3369565,14.9685348 C42.3369565,12.8360549 41.2308931,10.8311592 39.444602,9.71430612 L39.444602,9.71430612 Z" id="Stroke-3" stroke="#000000" stroke-width="0.5"></path>
                            </g>
                        </g>
                    </g>
                </g>
            </g>
        </g>
    </g>
</svg>