<?xml version="1.0" encoding="UTF-8"?>
<svg width="60px" height="60px" viewBox="0 0 60 60" version="1.1" xmlns="http://www.w3.org/2000/svg" xmlns:xlink="http://www.w3.org/1999/xlink">
    <title>icon-1</title>
    <defs>
        <filter id="filter-1">
            <feColorMatrix in="SourceGraphic" type="matrix" values="0 0 0 0 1.000000 0 0 0 0 1.000000 0 0 0 0 1.000000 0 0 0 1.000000 0"></feColorMatrix>
        </filter>
        <polygon id="path-2" points="0 4.01962699e-13 42.8652214 4.01962699e-13 42.8652214 48.4563372 0 48.4563372"></polygon>
    </defs>
    <g id="页面-1" stroke="none" stroke-width="1" fill="none" fill-rule="evenodd">
        <g id="pizzap-首页" transform="translate(-397.000000, -3126.000000)">
            <g id="05" transform="translate(0.000000, 3002.000000)">
                <g id="icon-1" transform="translate(397.000000, 124.000000)">
                    <rect id="矩形" fill="#D8D8D8" opacity="0" x="0" y="0" width="60" height="60"></rect>
                    <g id="icon" transform="translate(3.000000, 1.000000)">
                        <circle id="椭圆形" fill="#FC814C" cx="33.546695" cy="19.5689054" r="19.5689054"></circle>
                        <g filter="url(#filter-1)" id="编组">
                            <g transform="translate(0.000000, 9.318526)">
                                <mask id="mask-3" fill="white">
                                    <use xlink:href="#path-2"></use>
                                </mask>
                                <g id="Clip-2"></g>
                                <path d="M6.23791793,3.46337392 C4.7747493,3.46337392 3.58443894,4.61348136 3.58443894,6.02723122 L3.58443894,39.6351143 C3.58443894,41.0472979 4.7747493,42.1971443 6.23791793,42.1971443 L36.6273035,42.1971443 C38.0904721,42.1971443 39.2810526,41.0467759 39.2810526,39.6351143 L39.2810526,14.5300909 C39.2810526,13.8454037 39.0044122,13.2011765 38.5038118,12.7172229 L29.7034577,4.21436328 C29.2028574,3.73040976 28.5363808,3.46337392 27.8272195,3.46337392 L6.23791793,3.46337392 Z M36.6273035,45.6607793 L6.23791793,45.6607793 C2.79882329,45.6607793 0,42.958314 0,39.6351143 L0,6.02723122 C0,2.70429257 2.79882329,3.84857903e-14 6.23791793,3.84857903e-14 L27.8272195,3.84857903e-14 C29.4935459,3.84857903e-14 31.0601846,0.627782204 32.2377976,1.76562113 L41.0378815,10.2684808 C42.2157647,11.4065808 42.8652214,12.9203059 42.8652214,14.5300909 L42.8652214,39.6351143 C42.8652214,42.958314 40.0666682,45.6607793 36.6273035,45.6607793 L36.6273035,45.6607793 Z" id="Fill-1" fill="#000000" mask="url(#mask-3)"></path>
                            </g>
                        </g>
                        <path d="M22.4215622,37.3591135 C22.7247298,37.3591135 23.0264699,37.4315651 23.3036598,37.5787685 L27.3153483,39.7017174 L26.5497218,35.2033888 C26.444384,34.5852496 26.6476375,33.9541726 27.0932538,33.5160125 L30.3387449,30.3287141 L25.8537497,29.6711865 C25.2359959,29.5817719 24.7035972,29.1904754 24.4281201,28.627825 L22.4215622,24.5351683 L20.4167172,28.627825 C20.1409546,29.1907629 19.607985,29.5811969 18.9908021,29.6711865 L14.5058069,30.3287141 L17.7515835,33.5160125 C18.1971998,33.9541726 18.4004533,34.5852496 18.2951155,35.2033888 L17.529489,39.7017174 L21.5388937,37.5787685 C21.8172255,37.4321401 22.1183947,37.3591135 22.4215622,37.3591135 M29.8308965,45.0964916 C29.5234469,45.0964916 29.2205649,45.0211648 28.9487989,44.8768365 L22.4221332,41.4218695 L15.8971803,44.8768365 C15.2608711,45.2160943 14.4898207,45.1623306 13.9014702,44.7316457 C13.318829,44.3046983 13.0267948,43.5821942 13.1489753,42.8671653 L14.3956161,35.5486843 L9.11330749,30.3629274 C8.59746596,29.8563407 8.41248239,29.0984733 8.63429139,28.4087449 C8.85724227,27.718154 9.45016029,27.2147299 10.1638315,27.1106525 L17.4615475,26.0414154 L20.7238812,19.3821871 C21.359905,18.0780571 23.4832195,18.0780571 24.1192433,19.3821871 L27.3838607,26.0414154 L34.6815768,27.1106525 C35.3952479,27.2147299 35.9878805,27.718154 36.2111168,28.4087449 C36.4329258,29.0978983 36.2479423,29.8557657 35.7321007,30.3629274 L30.4497921,35.5486843 L31.6964329,42.8671653 C31.8186134,43.5824817 31.5268647,44.3049859 30.943938,44.7316457 C30.6147929,44.9734387 30.2228447,45.0964916 29.8308965,45.0964916" id="Fill-3" fill="#FFFFFF"></path>
                    </g>
                </g>
            </g>
        </g>
    </g>
</svg>