<?xml version="1.0" encoding="UTF-8"?>
<svg width="238px" height="50px" viewBox="0 0 238 50" version="1.1" xmlns="http://www.w3.org/2000/svg" xmlns:xlink="http://www.w3.org/1999/xlink">
    <title>编组</title>
    <defs>
        <filter id="filter-1">
            <feColorMatrix in="SourceGraphic" type="matrix" values="0 0 0 0 0.000000 0 0 0 0 0.000000 0 0 0 0 0.000000 0 0 0 1.000000 0"></feColorMatrix>
        </filter>
        <polygon id="path-2" points="0 0 238 0 238 50 0 50"></polygon>
    </defs>
    <g id="页面-1" stroke="none" stroke-width="1" fill="none" fill-rule="evenodd">
        <g id="pizzap-首页" transform="translate(-301.000000, -1799.000000)">
            <g id="02-Exclusive-Offer" transform="translate(278.000000, 1577.000000)">
                <g id="编组" transform="translate(0.000000, 100.000000)" filter="url(#filter-1)">
                    <g transform="translate(23.000000, 122.000000)">
                        <mask id="mask-3" fill="white">
                            <use xlink:href="#path-2"></use>
                        </mask>
                        <g id="Clip-2"></g>
                        <path d="M236.108271,23.1158636 C237.151696,23.1158636 238,23.9636921 238,25.0157159 L238,25.0694515 C237.953599,26.1178928 237.069603,26.9287034 236.024988,26.8809385 C235.047,26.8367558 234.264133,26.0510219 234.220112,25.0694515 L234.220112,25.0157159 C234.220112,23.9672745 235.063656,23.1158636 236.108271,23.1158636 L236.108271,23.1158636 Z M228.546115,23.1158636 C229.589541,23.1158636 230.437844,23.9636921 230.437844,25.0157159 L230.437844,25.0694515 C230.391443,26.1178928 229.507447,26.9287034 228.462832,26.8809385 C227.483654,26.8367558 226.700787,26.0510219 226.657956,25.0694515 L226.657956,25.0157159 C226.657956,23.9672745 227.5015,23.1158636 228.546115,23.1158636 L228.546115,23.1158636 Z M220.983959,23.1158636 C222.028574,23.1158636 222.875688,23.9636921 222.875688,25.0157159 L222.875688,25.0694515 C222.923279,26.1178928 222.115427,27.0051274 221.070812,27.0528924 C220.026197,27.0994633 219.142201,26.2874585 219.09461,25.2402113 C219.092231,25.1828933 219.092231,25.1267694 219.09461,25.0694515 L219.09461,25.0157159 C219.09461,23.9672745 219.939344,23.1158636 220.983959,23.1158636 L220.983959,23.1158636 Z M168.028642,23.1158636 C169.073257,23.1158636 169.917991,23.9636921 169.917991,25.0157159 L169.917991,25.0694515 C169.8704,26.1178928 168.985214,26.9275093 167.941789,26.8809385 C166.963801,26.8367558 166.180934,26.0510219 166.136913,25.0694515 L166.136913,25.0157159 C166.136913,23.9672745 166.980458,23.1158636 168.028642,23.1158636 L168.028642,23.1158636 Z M160.466486,23.1158636 C161.507532,23.1158636 162.355835,23.9636921 162.355835,25.0157159 L162.355835,25.0694515 C162.308245,26.1178928 161.424248,26.9275093 160.379633,26.8809385 C159.401645,26.8367558 158.618779,26.0510219 158.574757,25.0694515 L158.574757,25.0157159 C158.574757,23.9672745 159.418302,23.1158636 160.462917,23.1158636 L160.466486,23.1158636 Z M152.90433,23.1158636 C153.945376,23.1158636 154.793679,23.9636921 154.793679,25.0157159 L154.793679,25.0694515 C154.84008,26.1178928 154.032229,27.0051274 152.987614,27.0528924 C151.944188,27.0994633 151.059002,26.2886527 151.012601,25.2402113 C151.010222,25.1828933 151.010222,25.1267694 151.012601,25.0694515 L151.012601,25.0157159 C151.012601,23.9672745 151.857335,23.1158636 152.900761,23.1158636 L152.90433,23.1158636 Z M183.230289,19.2624236 C184.274904,19.2624236 185.122017,20.1102521 185.122017,21.1622758 L185.122017,28.9216974 C185.169608,29.9701387 184.361757,30.8573733 183.317142,30.9051383 C182.272527,30.9529033 181.38853,30.1408986 181.342129,29.0936513 C181.33856,29.0363333 181.33856,28.9790153 181.342129,28.9216974 L181.342129,21.1622758 C181.342129,20.1138345 182.185674,19.2624236 183.230289,19.2624236 L183.230289,19.2624236 Z M190.792444,7.70568592 C191.840629,7.70568592 192.684173,8.55351438 192.684173,9.60434401 L192.684173,40.4808233 C192.637772,41.5280706 191.753776,42.3400753 190.709161,42.2923103 C189.731173,42.2469336 188.948306,41.4611996 188.904285,40.4808233 L188.904285,9.60434401 C188.904285,8.55709675 189.749019,7.70568592 190.797204,7.70568592 L190.792444,7.70568592 Z M198.3546,15.4101777 C199.402785,15.4101777 200.247519,16.2580062 200.247519,17.3100299 L200.247519,32.7751374 C200.199928,33.8223846 199.315932,34.6343894 198.271317,34.5866244 C197.293329,34.5424418 196.510462,33.7567078 196.466441,32.7751374 L196.466441,17.3100299 C196.466441,16.2627827 197.311175,15.4101777 198.35817,15.4101777 L198.3546,15.4101777 Z M175.668133,15.4101777 C176.712748,15.4101777 177.561051,16.2580062 177.561051,17.3100299 L177.561051,32.7751374 C177.51346,33.8223846 176.628274,34.6343894 175.584849,34.5866244 C174.606861,34.5424418 173.822805,33.7567078 173.779973,32.7751374 L173.779973,17.3100299 C173.779973,16.2627827 174.623518,15.4101777 175.668133,15.4101777 L175.668133,15.4101777 Z M205.79778,0 C206.842395,0 207.685939,0.847828453 207.685939,1.89865808 L207.685939,48.1853151 C207.639538,49.2337565 206.755542,50.0457612 205.710927,49.9979962 C204.732939,49.9538136 203.950072,49.1668855 203.906051,48.1853151 L203.906051,1.89865808 C203.906051,0.850216702 204.749595,0 205.79778,0 L205.79778,0 Z M213.359936,7.70568592 C214.404551,7.70568592 215.249285,8.55351438 215.249285,9.60434401 L215.249285,40.4808233 C215.201694,41.5280706 214.317698,42.3400753 213.273083,42.2923103 C212.295095,42.2469336 211.512228,41.4611996 211.468207,40.4808233 L211.468207,9.60434401 C211.468207,8.55709675 212.312941,7.70568592 213.359936,7.70568592 L213.359936,7.70568592 Z M107.646802,19.2624236 C108.694986,19.2624236 109.53972,20.1102521 109.53972,21.1622758 L109.53972,28.9216974 C109.49213,29.9701387 108.606943,30.7809493 107.563518,30.7343785 C106.58553,30.6901959 105.802664,29.9044619 105.757453,28.9216974 L105.757453,21.1622758 C105.757453,20.1138345 106.602187,19.2624236 107.650371,19.2624236 L107.646802,19.2624236 Z M115.208958,7.70568592 C116.257142,7.70568592 117.101876,8.55351438 117.101876,9.60434401 L117.101876,40.4808233 C117.054286,41.5280706 116.169099,42.3400753 115.125674,42.2923103 C114.147686,42.2469336 113.36363,41.4611996 113.319609,40.4808233 L113.319609,9.60434401 C113.319609,8.55709675 114.164343,7.70568592 115.212527,7.70568592 L115.208958,7.70568592 Z M122.771114,15.4101777 C123.819298,15.4101777 124.664032,16.2580062 124.664032,17.3100299 L124.664032,32.7751374 C124.616442,33.8223846 123.731255,34.6343894 122.68783,34.5866244 C121.709842,34.5424418 120.925786,33.7567078 120.881764,32.7751374 L120.881764,17.3100299 C120.881764,16.2627827 121.726499,15.4101777 122.774683,15.4101777 L122.771114,15.4101777 Z M100.084646,15.4101777 C101.128071,15.4101777 101.976375,16.2580062 101.976375,17.3100299 L101.976375,32.7751374 C101.929974,33.8223846 101.044787,34.6343894 100.001362,34.5866244 C99.0233742,34.5424418 98.2405078,33.7567078 98.1952967,32.7751374 L98.1952967,17.3100299 C98.1952967,16.2627827 99.0400309,15.4101777 100.084646,15.4101777 L100.084646,15.4101777 Z M130.214293,0 C131.258908,0 132.102452,0.847828453 132.102452,1.89865808 L132.102452,48.1853151 C132.056051,49.2337565 131.170865,50.0457612 130.12744,49.9979962 C129.149452,49.9538136 128.365396,49.1668855 128.321374,48.1853151 L128.321374,1.89865808 C128.321374,0.850216702 129.166109,0 130.214293,0 L130.214293,0 Z M137.776449,7.70568592 C138.819874,7.70568592 139.664608,8.55351438 139.664608,9.60434401 L139.664608,40.4808233 C139.618207,41.5280706 138.733021,42.3400753 137.689596,42.2923103 C136.711608,42.2469336 135.927552,41.4611996 135.88353,40.4808233 L135.88353,9.60434401 C135.88353,8.55709675 136.728265,7.70568592 137.776449,7.70568592 L137.776449,7.70568592 Z M145.338605,11.5579318 C146.38203,11.5579318 147.231523,12.4045662 147.231523,13.4565899 L147.231523,36.6273833 C147.231523,37.6758247 146.38322,38.5272355 145.338605,38.5272355 C144.29399,38.5272355 143.445686,37.6758247 143.445686,36.6273833 L143.445686,13.4565899 C143.445686,12.4093427 144.29518,11.5579318 145.338605,11.5579318 L145.338605,11.5579318 Z M92.52249,23.1158636 C93.5659152,23.1158636 94.4142187,23.9636921 94.4142187,25.0157159 L94.4142187,25.0694515 C94.4618094,26.1178928 93.6539579,27.0051274 92.6093429,27.0528924 C91.5647279,27.0994633 90.6807314,26.2874585 90.6343305,25.2402113 C90.6307612,25.1828933 90.6307612,25.1267694 90.6343305,25.0694515 L90.6343305,25.0157159 C90.6343305,23.9672745 91.477875,23.1158636 92.52249,23.1158636 L92.52249,23.1158636 Z M84.960334,23.1158636 C86.0037593,23.1158636 86.8520628,23.9636921 86.8520628,25.0157159 L86.8520628,25.0694515 C86.8996534,26.1178928 86.091802,27.0051274 85.047187,27.0528924 C84.002572,27.0994633 83.1185755,26.2886527 83.0721746,25.2402113 C83.0686053,25.1828933 83.0686053,25.1267694 83.0721746,25.0694515 L83.0721746,25.0157159 C83.0721746,23.9672745 83.915719,23.1158636 84.960334,23.1158636 L84.960334,23.1158636 Z M77.3981781,23.1158636 C78.4416033,23.1158636 79.2863376,23.9636921 79.2863376,25.0157159 L79.2863376,25.0694515 C79.2387469,26.1178928 78.3547504,26.9275093 77.3101354,26.8809385 C76.3321473,26.8367558 75.549281,26.0510219 75.5052596,25.0694515 L75.5052596,25.0157159 C75.5052596,23.9672745 76.3499938,23.1158636 77.3981781,23.1158636 L77.3981781,23.1158636 Z M9.45775142,23.1158636 C10.5011766,23.1158636 11.3459109,23.9636921 11.3459109,25.0157159 L11.3459109,25.0694515 C11.3923118,26.1178928 10.5844603,27.0051274 9.53984531,27.0528924 C8.49642008,27.0994633 7.6112338,26.2874585 7.5648329,25.2402113 C7.56245337,25.1828933 7.56245337,25.1267694 7.5648329,25.0694515 L7.5648329,25.0157159 C7.5648329,23.9672745 8.40956712,23.1158636 9.45775142,23.1158636 L9.45775142,23.1158636 Z M1.89559549,23.1158636 C2.93902072,23.1158636 3.78256517,23.9636921 3.78256517,25.0157159 L3.78256517,25.0694515 C3.83015583,26.1178928 3.02230437,27.0051274 1.97768938,27.0528924 C0.934264151,27.0994633 0.0490778685,26.2874585 0.00267697464,25.2402113 C-0.000892324881,25.1828933 -0.000892324881,25.1267694 0.00267697464,25.0694515 L0.00267697464,25.0157159 C0.00267697464,23.9636921 0.847411196,23.1158636 1.89559549,23.1158636 L1.89559549,23.1158636 Z M17.0151483,23.1158636 C18.0597633,23.1158636 18.9033077,23.9636921 18.9033077,25.0157159 L18.9033077,25.0694515 C18.9508984,26.1178928 18.1430469,27.0051274 17.0984319,27.0528924 C16.0538169,27.0994633 15.1698204,26.2874585 15.1234195,25.2402113 C15.1198502,25.1828933 15.1198502,25.1267694 15.1234195,25.0694515 L15.1234195,25.0157159 C15.1234195,23.9672745 15.966964,23.1158636 17.0151483,23.1158636 L17.0151483,23.1158636 Z M32.1394601,19.2624236 C33.1840751,19.2624236 34.0323786,20.1102521 34.0323786,21.1622758 L34.0323786,28.9216974 C34.0787795,29.9701387 33.2709281,30.8573733 32.2275029,30.9039442 C31.1828879,30.9529033 30.2988913,30.1408986 30.2513007,29.0936513 C30.2489211,29.0363333 30.2489211,28.9790153 30.2513007,28.9216974 L30.2513007,21.1622758 C30.2513007,20.1138345 31.0960349,19.2624236 32.1394601,19.2624236 L32.1394601,19.2624236 Z M39.7016161,7.70568592 C40.7462311,7.70568592 41.5945346,8.55351438 41.5945346,9.60434401 L41.5945346,40.4808233 C41.5469439,41.5280706 40.6629474,42.3400753 39.6183324,42.2923103 C38.6403443,42.2469336 37.857478,41.4611996 37.8134566,40.4808233 L37.8134566,9.60434401 C37.8134566,8.55709675 38.6570011,7.70568592 39.7016161,7.70568592 L39.7016161,7.70568592 Z M47.141226,15.4101777 C48.185841,15.4101777 49.0341445,16.2580062 49.0341445,17.3100299 L49.0341445,32.7751374 C49.0805454,33.8235788 48.272694,34.7108133 47.228079,34.7573842 C46.1846538,34.8051492 45.2994675,33.9931445 45.2518768,32.9458972 C45.2494973,32.8897733 45.2494973,32.8324554 45.2518768,32.7751374 L45.2518768,17.3100299 C45.2518768,16.2627827 46.096611,15.4101777 47.141226,15.4101777 L47.141226,15.4101777 Z M24.5773042,15.4101777 C25.6219192,15.4101777 26.4702227,16.2580062 26.4702227,17.3100299 L26.4702227,32.7751374 C26.5166236,33.8235788 25.7087722,34.7108133 24.6641572,34.7573842 C23.6207319,34.8051492 22.7355456,33.9931445 22.6891448,32.9458972 C22.6867652,32.8897733 22.6867652,32.8324554 22.6891448,32.7751374 L22.6891448,17.3100299 C22.6891448,16.2627827 23.533879,15.4101777 24.5773042,15.4101777 L24.5773042,15.4101777 Z M54.7117103,0 C55.7515663,0 56.5998698,0.847828453 56.5998698,1.89865808 L56.5998698,48.1853151 C56.5522791,49.2337565 55.6682826,50.0457612 54.6236676,49.9979962 C53.6456795,49.9538136 52.8628132,49.1668855 52.8187918,48.1853151 L52.8187918,1.89865808 C52.8187918,0.850216702 53.663526,0 54.7069513,0 L54.7117103,0 Z M62.2738663,7.70568592 C63.3172915,7.70568592 64.1620257,8.55351438 64.1620257,9.60434401 L64.1620257,40.4808233 C64.114435,41.5280706 63.2304385,42.3400753 62.1858235,42.2923103 C61.2078355,42.2469336 60.4249691,41.4611996 60.3809477,40.4808233 L60.3809477,9.60434401 C60.3809477,8.55709675 61.225682,7.70568592 62.2738663,7.70568592 L62.2738663,7.70568592 Z M69.8360222,11.5579318 C70.8794474,11.5579318 71.7241816,12.4045662 71.7241816,13.4565899 L71.7241816,36.6273833 C71.676591,37.6746305 70.7925945,38.4866353 69.7479795,38.4400644 C68.7699914,38.3958818 67.987125,37.6101478 67.9431037,36.6273833 L67.9431037,13.4565899 C67.9431037,12.4093427 68.7878379,11.5579318 69.8360222,11.5579318 L69.8360222,11.5579318 Z" id="Fill-1" fill="#000000" mask="url(#mask-3)"></path>
                    </g>
                </g>
            </g>
        </g>
    </g>
</svg>