<?xml version="1.0" encoding="UTF-8"?>
<svg width="96px" height="96px" viewBox="0 0 96 96" version="1.1" xmlns="http://www.w3.org/2000/svg"
    xmlns:xlink="http://www.w3.org/1999/xlink">
    <title>暂停</title>
    <defs>
        <filter x="-40.6%" y="-40.6%" width="181.1%" height="181.1%" filterUnits="objectBoundingBox" id="filter-1">
            <feOffset dx="0" dy="6" in="SourceAlpha" result="shadowOffsetOuter1"></feOffset>
            <feGaussianBlur stdDeviation="6.5" in="shadowOffsetOuter1" result="shadowBlurOuter1"></feGaussianBlur>
            <feColorMatrix values="0 0 0 0 0.988235294   0 0 0 0 0.505882353   0 0 0 0 0.298039216  0 0 0 0.648141608 0"
                type="matrix" in="shadowBlurOuter1" result="shadowMatrixOuter1"></feColorMatrix>
            <feMerge>
                <feMergeNode in="shadowMatrixOuter1"></feMergeNode>
                <feMergeNode in="SourceGraphic"></feMergeNode>
            </feMerge>
        </filter>
        <filter id="filter-2">
            <feColorMatrix in="SourceGraphic" type="matrix"
                values="0 0 0 0 0.988235 0 0 0 0 0.505882 0 0 0 0 0.298039 0 0 0 1.000000 0"></feColorMatrix>
        </filter>
        <filter x="-50.0%" y="-50.0%" width="200.0%" height="200.0%" filterUnits="objectBoundingBox" id="filter-3">
            <feOffset dx="-2" dy="0" in="SourceAlpha" result="shadowOffsetOuter1"></feOffset>
            <feGaussianBlur stdDeviation="2" in="shadowOffsetOuter1" result="shadowBlurOuter1"></feGaussianBlur>
            <feColorMatrix values="0 0 0 0 0.988235294   0 0 0 0 0.505882353   0 0 0 0 0.298039216  0 0 0 1 0"
                type="matrix" in="shadowBlurOuter1" result="shadowMatrixOuter1"></feColorMatrix>
            <feMerge>
                <feMergeNode in="shadowMatrixOuter1"></feMergeNode>
                <feMergeNode in="SourceGraphic"></feMergeNode>
            </feMerge>
        </filter>
        <rect id="path-4" x="0" y="0" width="24" height="24"></rect>
    </defs>
    <g id="页面-1" stroke="none" stroke-width="1" fill="none" fill-rule="evenodd">
        <g id="pizzap-首页" transform="translate(-681.000000, -1772.000000)">
            <g id="02-Exclusive-Offer" transform="translate(278.000000, 1577.000000)">
                <g id="Exclusive-1" transform="translate(307.000000, 100.000000)">
                    <g id="暂停" transform="translate(99.000000, 98.000000)" filter="url(#filter-1)">
                        <g filter="url(#filter-2)">
                            <g filter="url(#filter-3)" transform="translate(33.000000, 33.000000)">
                                <mask id="mask-5" fill="white">
                                    <use xlink:href="#path-4"></use>
                                </mask>
                                <use id="蒙版" fill="#D8D8D8" opacity="0" xlink:href="#path-4"></use>
                                <path
                                    d="M8.0664693,1.49700601 L8.0664693,22.4550898 C8.06537404,23.2814787 7.27507374,23.9511677 6.29985196,23.9520958 L2.76661734,23.9520958 C1.79139556,23.9511677 1.00109526,23.2814787 1,22.4550898 L1,1.49700601 C1.00109526,0.670617158 1.79139556,0.000928106673 2.76661734,3.19744231e-14 L6.29985196,3.19744231e-14 C7.27507374,0.000928106673 8.06537404,0.670617158 8.0664693,1.49700601 L8.0664693,1.49700601 Z M21.3394969,9.76996262e-14 L17.8062623,9.76996262e-14 C16.8310405,0.000928106673 16.0407402,0.670617158 16.039645,1.49700601 L16.039645,22.4550898 C16.0407402,23.2814787 16.8310405,23.9511677 17.8062623,23.9520958 L21.3394969,23.9520958 C22.3147187,23.9511677 23.105019,23.2814787 23.1061143,22.4550898 L23.1061143,1.49700601 C23.105019,0.670617158 22.3147187,0.000928106673 21.3394969,9.76996262e-14 L21.3394969,9.76996262e-14 Z"
                                    id="形状" fill="#5C5C66" fill-rule="nonzero" mask="url(#mask-5)"></path>
                            </g>
                        </g>
                    </g>
                </g>
            </g>
        </g>
    </g>
</svg>