<?xml version="1.0" encoding="UTF-8"?>
<svg viewBox="0 0 116 30" version="1.1" xmlns="http://www.w3.org/2000/svg" xmlns:xlink="http://www.w3.org/1999/xlink">
    <title>logo</title>
    <defs>
        <linearGradient x1="-62.1619815%" y1="50%" x2="124.377732%" y2="43.5167463%" id="linearGradient-1">
            <stop stop-color="#F71313" offset="0%"></stop>
            <stop stop-color="#DD12FB" offset="46.9411463%"></stop>
            <stop stop-color="#FF7D10" offset="86.7486273%"></stop>
            <stop stop-color="#C890FF" offset="99.9813907%"></stop>
        </linearGradient>
        <linearGradient x1="-62.1619815%" y1="50%" x2="124.377732%" y2="-36.4760646%" id="linearGradient-2">
            <stop stop-color="#F71313" offset="0%"></stop>
            <stop stop-color="#DD12FB" offset="46.9411463%"></stop>
            <stop stop-color="#FF7D10" offset="86.7486273%"></stop>
            <stop stop-color="#C890FF" offset="99.9813907%"></stop>
        </linearGradient>
        <linearGradient x1="-28.1904691%" y1="50%" x2="101.850277%" y2="-36.4760646%" id="linearGradient-3">
            <stop stop-color="#F71313" offset="0%"></stop>
            <stop stop-color="#DD12FB" offset="46.9411463%"></stop>
            <stop stop-color="#FF7D10" offset="86.7486273%"></stop>
            <stop stop-color="#C890FF" offset="99.9813907%"></stop>
        </linearGradient>
    </defs>
    <g id="页面-1" stroke="none" stroke-width="1" fill="none" fill-rule="evenodd">
        <g id="pizzap-首页" transform="translate(-675.000000, -5553.000000)">
            <g id="foot" transform="translate(506.000000, 5553.000000)">
                <g id="logo" transform="translate(169.000000, 0.000000)">
                    <path
                        d="M72.1779933,9.02397843 C72.1779933,9.85954935 72.8482641,10.5369057 73.6750944,10.5369057 L79.3308094,10.5369057 L71.4410069,20.9449102 C71.1567979,21.2204374 70.9802236,21.6078834 70.9802236,22.0371304 C70.9802236,22.8731508 71.6500495,23.5500576 72.4773246,23.5500576 L81.9104844,23.5500576 C82.7373147,23.5500576 83.4080302,22.8731508 83.4080302,22.0371304 C83.4080302,21.2015595 82.7373147,20.5237537 81.9104844,20.5237537 L75.5324604,20.5237537 L83.4787489,10.0420355 C83.9257443,9.45232651 83.8772642,8.63698188 83.4000244,8.1057044 C83.1264899,7.74387837 82.6950614,7.51105118 82.2102605,7.51105118 L73.6750944,7.51105118 C72.8482641,7.51105118 72.1779933,8.1884075 72.1779933,9.02397843 L72.1779933,9.02397843 Z M59.0016361,10.5369057 C58.1748058,10.5369057 57.5040903,9.85954935 57.5040903,9.02397843 C57.5040903,8.1884075 58.1748058,7.51105118 59.0016361,7.51105118 L67.5359127,7.51105118 C68.0216032,7.51105118 68.4530316,7.74387837 68.7265661,8.1057044 C69.203806,8.63698188 69.2518413,9.45232651 68.8048459,10.0420355 L60.8585574,20.5237537 L67.2370262,20.5237537 C68.0638565,20.5237537 68.7341272,21.2015595 68.7341272,22.0371304 C68.7341272,22.8731508 68.0638565,23.5500576 67.2370262,23.5500576 L57.8038663,23.5500576 C56.9765912,23.5500576 56.3058757,22.8731508 56.3058757,22.0371304 C56.3058757,21.6078834 56.4828948,21.2204374 56.7671038,20.9449102 L64.6569064,10.5369057 L59.0016361,10.5369057 Z M51.7647582,7 C50.7720281,7 49.9674364,7.81309726 49.9674364,8.81587227 L49.9674364,21.9800473 C49.9674364,22.9832718 50.7720281,23.7959196 51.7647582,23.7959196 C52.7565988,23.7959196 53.5616353,22.9832718 53.5616353,21.9800473 L53.5616353,8.81587227 C53.5616353,7.81309726 52.7565988,7 51.7647582,7 L51.7647582,7 Z M94.6482969,19.5897481 C93.9090866,20.9008618 92.8910045,21.5566434 91.5931611,21.5566434 C90.8548403,21.5566434 90.2957625,21.3449415 89.9168171,20.9210881 C89.5369822,20.4972348 89.3475095,19.9021321 89.3475095,19.13578 C89.3475095,17.2794552 90.5853088,16.3517422 93.0609072,16.3517422 L94.6482969,16.3517422 L94.6482969,19.5897481 Z M98.6908255,21.0725606 C98.5111378,20.7700651 98.421294,20.3057591 98.421294,19.6805417 L98.421294,12.9618143 C98.421294,9.29006664 96.3949148,7.45396807 92.3421564,7.45396807 C90.8583985,7.45396807 89.3359455,7.69893104 87.7752421,8.18885697 C87.7485558,8.19694749 87.726762,8.20818432 87.7094159,8.2203201 C87.179693,8.41673995 86.802082,8.93138692 86.802082,9.53458013 C86.802082,10.3072248 87.4220935,10.9342401 88.1871006,10.9342401 C88.3547794,10.9342401 88.515342,10.9045749 88.6638957,10.8492896 C88.6910267,10.8542338 88.7186026,10.8533349 88.748847,10.8456939 C89.8558834,10.5414004 90.8339361,10.3894784 91.683005,10.3894784 C92.7211018,10.3894784 93.4700971,10.6016298 93.9295461,11.0250337 C94.4081203,11.4286608 94.6482969,12.1446718 94.6482969,13.1735162 L94.6482969,14.0819019 L92.6717321,14.0819019 C90.3558067,14.0819019 88.5691593,14.5457583 87.3109006,15.4739208 C86.0731014,16.3814074 85.4544242,17.7033085 85.4544242,19.4382756 C85.4544242,20.9107502 85.9138732,22.1014051 86.8318816,23.0093412 C87.7503349,23.9172774 88.9979191,24.3712454 90.575079,24.3712454 C91.5731464,24.3712454 92.4720297,24.1797698 93.2703946,23.7959196 C94.0892191,23.392742 94.7679404,22.7873014 95.3070036,21.9800473 C95.6067796,22.7266225 96.0359841,23.2817221 96.5946172,23.6448965 C96.7751945,23.7577143 96.8979514,23.7986164 97.0091443,23.8035606 C97.2430941,23.9428973 97.5161839,24.0229036 97.8075092,24.0229036 C98.6757033,24.0229036 99.3793319,23.3118368 99.3793319,22.4344648 C99.3793319,21.9013895 99.1204748,21.4303414 98.7224043,21.142229 C98.7175118,21.1184069 98.7068373,21.0950343 98.6908255,21.0725606 L98.6908255,21.0725606 Z M42.0620668,15.4433566 C42.0620668,19.1155537 40.9536961,20.9512028 38.7373995,20.9512028 C37.5400744,20.9512028 36.5718068,20.3965527 35.8330412,19.2868031 L35.8330412,12.0844424 C36.2320013,11.4183229 36.711465,10.8937875 37.2705429,10.5108362 C37.8296207,10.1072092 38.4282832,9.90539563 39.0669752,9.90539563 C40.0654873,9.90539563 40.8140378,10.3391374 41.3130715,11.2066209 C41.81255,12.0741045 42.0620668,13.4867992 42.0620668,15.4433566 L42.0620668,15.4433566 Z M44.6372941,9.20916144 C43.6788114,7.7366868 42.2017251,7 40.2051456,7 C39.3267218,7 38.4883274,7.20181353 37.6895177,7.60544058 C36.8911528,8.00861816 36.1821869,8.61405874 35.5635097,9.42131285 L35.4238514,8.91745325 C35.4371946,8.83519962 35.4438661,8.75069864 35.4438661,8.66439976 C35.4438661,7.74522679 34.6726323,7 33.7217107,7 C32.7707891,7 32,7.74522679 32,8.66439976 L32,28.1827793 L32,28.1845772 L32,28.1859256 L32,28.3962791 L32.0124536,28.3958297 C32.1227569,29.2988216 32.9295725,30 33.9089595,30 C34.9635128,30 35.817919,29.1869027 35.817919,28.1845772 C35.817919,28.1648004 35.817919,28.1450235 35.8170295,28.1256962 L35.8330412,28.1234488 L35.8330412,22.1616345 C36.8110939,23.3320631 38.138737,23.9172774 39.8155257,23.9172774 C41.1133691,23.9172774 42.2315248,23.5541029 43.169548,22.827754 C44.1284754,22.1014051 44.8467815,21.1026753 45.3262452,19.8315648 C45.8248341,18.5406773 46.0747957,17.0677532 46.0747957,15.4132419 C46.0747957,12.7501124 45.595332,10.6820856 44.6372941,9.20916144 L44.6372941,9.20916144 Z M108.663048,20.9512028 C110.879345,20.9512028 111.987271,19.1155537 111.987271,15.4433566 C111.987271,13.4867992 111.737754,12.0741045 111.238276,11.2066209 C110.739242,10.3391374 109.991136,9.90539563 108.992624,9.90539563 C108.353487,9.90539563 107.754825,10.1072092 107.195302,10.5108362 C106.636669,10.8937875 106.15765,11.4183229 105.758245,12.0844424 L105.758245,19.2868031 C106.497011,20.3965527 107.465279,20.9512028 108.663048,20.9512028 L108.663048,20.9512028 Z M110.13035,7 C112.126929,7 113.60446,7.7366868 114.562498,9.20916144 C115.520536,10.6820856 116,12.7501124 116,15.4132419 C116,17.0677532 115.750483,18.5406773 115.251449,19.8315648 C114.772431,21.1026753 114.05368,22.1014051 113.095197,22.827754 C112.157174,23.5541029 111.039018,23.9172774 109.741175,23.9172774 C108.064386,23.9172774 106.736298,23.3320631 105.758245,22.1616345 L105.758245,28.1234488 L105.742678,28.1256962 C105.743123,28.1450235 105.743568,28.1648004 105.743568,28.1845772 C105.743568,29.1869027 104.888717,30 103.834164,30 C102.855222,30 102.047961,29.2988216 101.937658,28.3958297 L101.925204,28.3962791 L101.925204,28.1845772 L101.925204,8.66439976 C101.925204,7.74522679 102.695993,7 103.646915,7 C104.598281,7 105.36907,7.74522679 105.36907,8.66439976 C105.36907,8.75069864 105.361954,8.83519962 105.349056,8.91745325 L105.488714,9.42131285 C106.107391,8.61405874 106.816357,8.00861816 107.614722,7.60544058 C108.413532,7.20181353 109.251926,7 110.13035,7 L110.13035,7 Z"
                        id="Fill-1" fill="url(#linearGradient-1)"></path>
                    <path
                        d="M54,2.5 C54,3.88079724 52.8808949,5 51.5,5 C50.1195693,5 49,3.88079724 49,2.5 C49,1.11920276 50.1195693,0 51.5,0 C52.8808949,0 54,1.11920276 54,2.5"
                        id="Fill-3" fill="url(#linearGradient-2)"></path>
                    <path
                        d="M20.5435455,11.2255147 C14.0744545,4.40051471 5.13036364,2.42580882 1.104,2.34154412 C0.486727273,2.32830882 -0.00736363636,1.82536765 -0.000170177032,1.21786765 C0.00763636364,0.610367647 0.514,0.128161765 1.13081818,0.140707064 C6.119,0.245514706 17.7358182,2.91683824 24.7294545,12.8565441 C24.8994545,13.0978676 24.9653636,13.3947794 24.9130909,13.6815441 C24.8608182,13.9691912 24.694,14.2228676 24.4503636,14.3874265 L19.4317273,17.7730147 C19.3767273,17.8105147 19.3185455,17.8422794 19.2580909,17.8691912 L2.45809091,29.5158088 C2.25490909,29.81625 1.904,30.0094853 1.50854545,29.9997794 C0.891272727,29.9847794 0.399,29.4791912 0.409,28.8716912 L0.477181818,24.6575735 C0.703545455,24.9558088 1.00354545,25.2191912 1.36763636,25.4203676 C2.589,26.0953676 4.06627273,25.8121324 4.66718182,24.7881618 C5.26763636,23.7641912 4.76445455,22.3868382 3.54263636,21.7118382 C2.47809091,21.12375 1.21945455,21.2631618 0.515818182,21.9866912 L0.625818182,14.4761029 L0.642181818,14.4765441 L0.751727273,7.71022059 C0.756727273,7.40580882 0.889454545,7.11772059 1.119,6.91522059 C1.34854545,6.71316176 1.65354545,6.61433824 1.96218182,6.64213235 C2.45854545,6.68757353 2.94672727,6.74669118 3.42536364,6.81816176 C3.20763636,6.94301471 3.02218182,7.11948529 2.89081818,7.34360294 C2.45990909,8.07860294 2.77490909,9.04125 3.59445455,9.49389706 C4.414,9.94698529 5.42763636,9.71801471 5.85854545,8.98345588 C6.18218182,8.43154412 6.08490909,7.75080882 5.669,7.25448529 C7.21036364,7.62595588 8.64127273,8.12227941 9.95672727,8.69669118 C9.99218182,8.71213235 10.0262727,8.72889706 10.059,8.74742647 L10.0608182,8.74477941 C11.0558182,9.26801471 13.0076364,10.3069853 13.719,10.7296324 C13.7649091,10.7516912 13.8099091,10.7768382 13.8535455,10.8055147 C14.8167273,11.4368382 15.6817273,12.09375 16.4430909,12.7431618 L11.2280909,17.6975735 C10.9694545,16.8011029 10.1971818,15.8803676 9.07490909,15.2605147 C7.26081818,14.2577206 5.21854545,14.4200735 4.51309091,15.6227206 C3.80809091,16.8249265 4.70718182,18.6121324 6.52127273,19.6149265 C8.26036364,20.5753676 10.209,20.4659559 10.9885455,19.3965441 L17.5753636,13.7724265 C17.5794545,13.7763971 17.5830909,13.7803676 17.5871818,13.7843382 L19.3999091,12.2150735 L20.4785455,11.2943382 L20.4717273,11.2877206 L20.5435455,11.2255147 Z"
                        id="Fill-5" fill="url(#linearGradient-3)"></path>
                </g>
            </g>
        </g>
    </g>
</svg>