<?xml version="1.0" encoding="UTF-8"?>
<svg viewBox="0 0 110 30" version="1.1" xmlns="http://www.w3.org/2000/svg" xmlns:xlink="http://www.w3.org/1999/xlink">
    <title>编组</title>
    <defs>
        <polygon id="path-1" points="0 0.134901961 23.8938694 0.134901961 23.8938694 28.6666667 0 28.6666667"></polygon>
    </defs>
    <g id="页面-1" stroke="none" stroke-width="1" fill="none" fill-rule="evenodd">
        <g id="pizzap-首页" transform="translate(-278.000000, -23.000000)">
            <g id="编组" transform="translate(278.000000, 23.000000)">
                <path
                    d="M68.5230182,8.4305969 C68.5230182,9.21997148 69.1574211,9.85987868 69.9400056,9.85987868 L75.2930693,9.85987868 L67.8254697,19.6924541 C67.5564694,19.9527481 67.3893441,20.3187733 67.3893441,20.7242885 C67.3893441,21.5140877 68.023326,22.1535703 68.8063315,22.1535703 L77.7346994,22.1535703 C78.517284,22.1535703 79.1521078,21.5140877 79.1521078,20.7242885 C79.1521078,19.9349139 78.517284,19.2945821 77.7346994,19.2945821 L71.6979794,19.2945821 L79.2190422,9.39236851 C79.6421177,8.83526284 79.5962319,8.06499631 79.1445304,7.56309165 C78.8856334,7.22126996 78.4772918,7.00131513 78.0184337,7.00131513 L69.9400056,7.00131513 C69.1574211,7.00131513 68.5230182,7.64122233 68.5230182,8.4305969 L68.5230182,8.4305969 Z M56.0517607,9.85987868 C55.2691762,9.85987868 54.6343523,9.21997148 54.6343523,8.4305969 C54.6343523,7.64122233 55.2691762,7.00131513 56.0517607,7.00131513 L64.1293468,7.00131513 C64.5890469,7.00131513 64.9973885,7.22126996 65.2562855,7.56309165 C65.707987,8.06499631 65.7534519,8.83526284 65.3303763,9.39236851 L57.8093135,19.2945821 L63.8464545,19.2945821 C64.6290391,19.2945821 65.263442,19.9349139 65.263442,20.7242885 C65.263442,21.5140877 64.6290391,22.1535703 63.8464545,22.1535703 L54.9180866,22.1535703 C54.1350811,22.1535703 53.5002572,21.5140877 53.5002572,20.7242885 C53.5002572,20.3187733 53.6678036,19.9527481 53.9368039,19.6924541 L61.4044034,9.85987868 L56.0517607,9.85987868 Z M49.2021462,6.51851852 C48.2625396,6.51851852 47.5010035,7.28666193 47.5010035,8.23399635 L47.5010035,20.6703614 C47.5010035,21.6181204 48.2625396,22.3858392 49.2021462,22.3858392 C50.1409109,22.3858392 50.9028679,21.6181204 50.9028679,20.6703614 L50.9028679,8.23399635 C50.9028679,7.28666193 50.1409109,6.51851852 49.2021462,6.51851852 L49.2021462,6.51851852 Z M89.7908798,18.4122151 C89.0912265,19.650841 88.1276245,20.2703663 86.8992319,20.2703663 C86.2004205,20.2703663 85.6712604,20.0703688 85.3125933,19.6699491 C84.9530843,19.2695294 84.7737508,18.7073282 84.7737508,17.9833456 C84.7737508,16.2296517 85.9453123,15.3532293 88.2884353,15.3532293 L89.7908798,15.3532293 L89.7908798,18.4122151 Z M93.6170826,19.8130471 C93.4470105,19.5272756 93.3619744,19.0886399 93.3619744,18.497989 L93.3619744,12.150721 C93.3619744,8.68197385 91.4440318,6.94738798 87.6081466,6.94738798 C86.2037883,6.94738798 84.7628055,7.17880763 83.2856193,7.64164695 C83.2603611,7.64929017 83.2397335,7.65990575 83.2233156,7.67137058 C82.7219395,7.85693092 82.3645354,8.34312452 82.3645354,8.91296889 C82.3645354,9.64289621 82.9513686,10.2352456 83.6754382,10.2352456 C83.8341441,10.2352456 83.9861146,10.2072205 84.1267188,10.1549918 C84.152398,10.1596627 84.1784982,10.1588134 84.2071242,10.1515948 C85.2549203,9.86412491 86.1806349,9.72060226 86.984268,9.72060226 C87.9668137,9.72060226 88.6757284,9.92102442 89.1105911,10.3210195 C89.5635556,10.7023312 89.7908798,11.378756 89.7908798,12.3507185 L89.7908798,13.2088821 L87.9200859,13.2088821 C85.7280914,13.2088821 84.037052,13.6470932 82.8461259,14.5239402 C81.6745644,15.3812545 81.0889941,16.6300714 81.0889941,18.269117 C81.0889941,19.6601827 81.5238569,20.7850096 82.3927404,21.6427486 C83.2620449,22.5004875 84.4428678,22.9293569 85.93563,22.9293569 C86.8802882,22.9293569 87.7310701,22.7484674 88.4867125,22.3858392 C89.2617196,22.0049522 89.9041209,21.4329847 90.4143374,20.6703614 C90.6980717,21.3756605 91.1043084,21.9000702 91.6330476,22.2431658 C91.8039617,22.3497462 91.9201497,22.3883869 92.0253923,22.3930578 C92.2468229,22.524691 92.505299,22.6002739 92.7810348,22.6002739 C93.6027696,22.6002739 94.2687453,21.92852 94.2687453,21.0996555 C94.2687453,20.5960523 94.0237403,20.1510472 93.6469715,19.8788637 C93.6423409,19.8563586 93.6322376,19.8342782 93.6170826,19.8130471 L93.6170826,19.8130471 Z M40.01867,14.4950658 C40.01867,17.9642376 38.969611,19.6983988 36.8719139,19.6983988 C35.7386608,19.6983988 34.8222075,19.1744137 34.1229751,18.126019 L34.1229751,11.3218564 C34.5005859,10.6925648 34.9543923,10.1970295 35.4835525,9.83525053 C36.0127127,9.45393888 36.5793393,9.26328305 37.1838532,9.26328305 C38.1289325,9.26328305 38.8374262,9.67304446 39.3097553,10.4925673 C39.7825055,11.3120901 40.01867,12.6466809 40.01867,14.4950658 L40.01867,14.4950658 Z M42.4560905,8.60554167 C41.5488986,7.21447598 40.1508548,6.51851852 38.2611173,6.51851852 C37.4297001,6.51851852 36.6361703,6.70917435 35.8801069,7.090486 C35.1244645,7.47137304 34.4534372,8.04334052 33.8678669,8.80596383 L33.7356821,8.3299612 C33.7483112,8.25225515 33.7546258,8.17242598 33.7546258,8.09089832 C33.7546258,7.22254383 33.0246625,6.51851852 32.1246271,6.51851852 C31.2245918,6.51851852 30.4950495,7.22254383 30.4950495,8.09089832 L30.4950495,26.5301619 L30.4950495,26.5318604 L30.4950495,26.5331342 L30.4950495,26.7318579 L30.5068367,26.7314333 C30.6112374,27.5845013 31.3748783,28.2469136 32.3018558,28.2469136 C33.2999774,28.2469136 34.1086621,27.4787702 34.1086621,26.5318604 C34.1086621,26.513177 34.1086621,26.4944935 34.1078202,26.4762347 L34.1229751,26.4741116 L34.1229751,20.8419092 C35.0486897,21.947628 36.3052873,22.5004875 37.8923469,22.5004875 C39.1207395,22.5004875 40.1790599,22.1573919 41.0668871,21.4712008 C41.9745,20.7850096 42.6543677,19.8414968 43.1081741,18.6406624 C43.5800823,17.4211445 43.8166678,16.0296541 43.8166678,14.466616 C43.8166678,11.9507234 43.3628614,9.99703198 42.4560905,8.60554167 L42.4560905,8.60554167 Z M103.055667,19.6983988 C105.153364,19.6983988 106.202002,17.9642376 106.202002,14.4950658 C106.202002,12.6466809 105.965838,11.3120901 105.493088,10.4925673 C105.020758,9.67304446 104.312686,9.26328305 103.367606,9.26328305 C102.762671,9.26328305 102.196045,9.45393888 101.666464,9.83525053 C101.137724,10.1970295 100.684339,10.6925648 100.306307,11.3218564 L100.306307,18.126019 C101.00554,19.1744137 101.921993,19.6983988 103.055667,19.6983988 L103.055667,19.6983988 Z M104.444449,6.51851852 C106.334187,6.51851852 107.732652,7.21447598 108.639423,8.60554167 C109.546194,9.99703198 110,11.9507234 110,14.466616 C110,16.0296541 109.763835,17.4211445 109.291506,18.6406624 C108.838121,19.8414968 108.157832,20.7850096 107.25064,21.4712008 C106.362813,22.1573919 105.304493,22.5004875 104.0761,22.5004875 C102.48904,22.5004875 101.232022,21.947628 100.306307,20.8419092 L100.306307,26.4741116 L100.291573,26.4762347 C100.291994,26.4944935 100.292415,26.513177 100.292415,26.5318604 C100.292415,27.4787702 99.4833096,28.2469136 98.485188,28.2469136 C97.5586314,28.2469136 96.7945696,27.5845013 96.6901689,26.7314333 L96.6783817,26.7318579 L96.6783817,26.5318604 L96.6783817,8.09089832 C96.6783817,7.22254383 97.4079239,6.51851852 98.3079593,6.51851852 C99.2084157,6.51851852 99.9379579,7.22254383 99.9379579,8.09089832 C99.9379579,8.17242598 99.9312224,8.25225515 99.9190143,8.3299612 L100.051199,8.80596383 C100.636769,8.04334052 101.307797,7.47137304 102.063439,7.090486 C102.819502,6.70917435 103.613032,6.51851852 104.444449,6.51851852 L104.444449,6.51851852 Z"
                    id="Fill-1" fill="#FEFEFE"></path>
                <path
                    d="M50.0990099,2.71604938 C50.0990099,4.21617478 49.123948,5.43209877 47.9207921,5.43209877 C46.7180405,5.43209877 45.7425743,4.21617478 45.7425743,2.71604938 C45.7425743,1.21592399 46.7180405,0 47.9207921,0 C49.123948,0 50.0990099,1.21592399 50.0990099,2.71604938"
                    id="Fill-3" fill="#FEFEFE"></path>
                <g>
                    <mask id="mask-2" fill="white">
                        <use xlink:href="#path-1"></use>
                    </mask>
                    <g id="Clip-6"></g>
                    <path
                        d="M19.6892594,10.7266029 C13.4891802,4.20493627 4.91702178,2.3179951 1.05809109,2.23747549 C0.466487129,2.22482843 -0.00705742574,1.7442402 -0.000163100363,1.1637402 C0.00731881188,0.583240196 0.492625743,0.122465686 1.08379406,0.134453417 C5.86454653,0.234602941 16.9982891,2.78720098 23.701101,12.2851422 C23.8640317,12.5157402 23.9272,12.7994559 23.877101,13.0734755 C23.827002,13.3483382 23.6671208,13.5907402 23.4336158,13.7479853 L18.6236752,16.9831029 C18.5709624,17.0189363 18.5152,17.0492892 18.4572594,17.0750049 L2.35587327,28.2039951 C2.16114059,28.4910833 1.82482376,28.6757304 1.44581386,28.6664559 C0.854209901,28.6521225 0.382407921,28.1690049 0.391992079,27.5885049 L0.457338614,23.5616814 C0.674289109,23.8466618 0.961813861,24.0983382 1.31076436,24.2905735 C2.48133861,24.9355735 3.8971802,24.6649265 4.47310099,23.6864657 C5.04858614,22.7080049 4.56632871,21.3918676 3.39531881,20.7468676 C2.37504158,20.1849167 1.16874455,20.3181324 0.494368317,21.0095049 L0.599794059,13.8327206 L0.615477228,13.8331422 L0.720467327,7.36754412 C0.725259406,7.07666176 0.852467327,6.80137745 1.07246733,6.60787745 C1.29246733,6.41479902 1.58478416,6.32036765 1.88058614,6.34692647 C2.35630891,6.39034804 2.8241901,6.44683824 3.28292277,6.51513235 C3.0742495,6.63443627 2.89650693,6.80306373 2.77060594,7.01722059 C2.35761584,7.71955392 2.65951683,8.63941667 3.44498218,9.07194608 C4.23044752,9.50489706 5.20193267,9.28610294 5.61492277,8.58419118 C5.92510099,8.05680882 5.83187327,7.40632843 5.43325941,6.93206373 C6.91052673,7.28702451 8.28193267,7.76128922 9.54268515,8.31017157 C9.57666535,8.32492647 9.60933861,8.34094608 9.64070495,8.35865196 L9.64244752,8.35612255 C10.5960713,8.85610294 12.4667248,9.84889706 13.1485069,10.2527598 C13.1925069,10.2738382 13.2356356,10.2978676 13.2774574,10.3252696 C14.2005861,10.9285343 15.0296158,11.55625 15.7593188,12.176799 L10.7611802,16.9110147 C10.513299,16.0543873 9.77314059,15.1745735 8.69753663,14.5822696 C6.95888317,13.6240441 5.00153663,13.7791814 4.32541782,14.9283775 C3.64973465,16.077152 4.51143762,17.7849265 6.25009109,18.743152 C7.91686337,19.6609069 9.78446733,19.5563578 10.531596,18.5344755 L16.8445069,13.1603186 C16.8484277,13.1641127 16.8519129,13.1679069 16.8558337,13.171701 L18.5931802,11.6721814 L19.6269624,10.7923676 L19.6204277,10.7860441 L19.6892594,10.7266029 Z"
                        id="Fill-5" fill="#FEFEFE" mask="url(#mask-2)"></path>
                </g>
            </g>
        </g>
    </g>
</svg>