<svg width="14" height="15" xmlns="http://www.w3.org/2000/svg" viewBox="0 0 12.16 15">
    <path
        d="M10.02 5.57A14.31 14.31 0 00.54 1.11.56.56 0 01.54 0a15.3 15.3 0 0111.52 6.39.56.56 0 01.09.42.55.55 0 01-.22.35L9.48 8.89h-.09L1.2 14.76a.52.52 0 01-.46.24.56.56 0 01-.54-.56v-2.12a1.32 1.32 0 00.43.38 1.17 1.17 0 001.61-.31 1.17 1.17 0 00-.51-1.5 1.22 1.22 0 00-1.47.14l.05-3.77.05-3.4a.54.54 0 01.18-.4.56.56 0 01.41-.14c.24 0 .48 0 .71.09a.81.81 0 00-.26.26.8.8 0 00.36 1.03.79.79 0 001.1-.25.77.77 0 00-.09-.87 11.67 11.67 0 012.09.72c.48.26 1.44.78 1.78 1h.07a12.26 12.26 0 011.26 1L5.48 8.82a2.17 2.17 0 00-1-1.22c-.89-.5-1.88-.42-2.23.18s.1 1.5 1 2a1.71 1.71 0 002.18-.11l3.14-2.78.88-.79.53-.46z"
        fill="#df0584" fill-rule="evenodd" />
</svg>