<svg width="14" height="15" xmlns="http://www.w3.org/2000/svg" viewBox="0 0 12.16 15">
    <path
        d="M10.01 5.6A14.36 14.36 0 00.53 1.14.55.55 0 010 .58.53.53 0 01.55.04a15.25 15.25 0 0111.46 6.34.52.52 0 01.09.42.51.51 0 01-.22.35l-2.45 1.7h-.08l-8.2 5.85a.54.54 0 01-.46.25.56.56 0 01-.53-.57v-2.12a1.62 1.62 0 00.43.39 1.18 1.18 0 001.61-.32 1.17 1.17 0 00-.55-1.55 1.22 1.22 0 00-1.47.14l.05-3.77v-3.4a.55.55 0 01.18-.4.56.56 0 01.41-.14l.72.09a.65.65 0 00-.26.26.8.8 0 00.34 1.08.79.79 0 001.1-.25.77.77 0 00-.09-.87 13.48 13.48 0 012.09.72c.49.26 1.44.78 1.79 1h.06a12.26 12.26 0 011.26 1L5.29 8.73a2.19 2.19 0 00-1-1.23c-.88-.5-1.88-.42-2.22.18s.09 1.51 1 2a1.68 1.68 0 002.17-.11l3.22-2.83.88-.79.67-.35z"
        fill="#fff" fill-rule="evenodd" />
</svg>